<svg width="100%" height="180" viewBox="0 0 1500 180" xmlns="http://www.w3.org/2000/svg">
  <style><![CDATA[
    @import url('https://fonts.googleapis.com/css2?family=Press+Start+2P&display=swap');

    .pixel-font {
      font-family: 'Press Start 2P', 'Courier New', monospace;
      text-rendering: optimizeSpeed;
      shape-rendering: crispEdges;
    }

    @keyframes fadeIn {
      0%   { opacity: 0; }
      100% { opacity: 1; }
    }
    .fade-title { animation: fadeIn 1.2s steps(6) forwards; }
    .fade-sub   { animation: fadeIn 1.2s steps(6) 0.6s forwards; opacity: 0; }

    @keyframes waveScrollBack {
      0%   { transform: translateX(0); }
      100% { transform: translateX(-160px); }
    }
    @keyframes waveScrollFront {
      0%   { transform: translateX(0); }
      100% { transform: translateX(160px); }
    }
    .wave-back  { animation: waveScrollBack 5s steps(8) infinite; }
    .wave-front { animation: waveScrollFront 3.5s steps(8) infinite; }

    @keyframes blink {
      0%, 49%   { opacity: 1; }
      50%, 100% { opacity: 0; }
    }
    .cursor { animation: blink 1s steps(1) infinite; }

    @keyframes twinkle {
      0%, 100% { opacity: 0.2; }
      50%      { opacity: 1; }
    }
    .star1 { animation: twinkle 1.6s steps(2) infinite; }
    .star2 { animation: twinkle 1.6s steps(2) 0.4s infinite; }
    .star3 { animation: twinkle 1.6s steps(2) 0.8s infinite; }
    .star4 { animation: twinkle 1.6s steps(2) 1.2s infinite; }
  ]]></style>

  <!-- twinkling pixel stars, only in the solid-color zone -->
  <rect class="star1" x="60"  y="24" width="6" height="6" fill="#F4C542"/>
  <rect class="star2" x="1400" y="34" width="6" height="6" fill="#F4C542"/>
  <rect class="star3" x="130" y="60" width="4" height="4" fill="#F4C542"/>
  <rect class="star4" x="1340" y="70" width="4" height="4" fill="#F4C542"/>
  <rect class="star1" x="1440" y="18" width="4" height="4" fill="#F4C542"/>
  <rect class="star3" x="30" y="90" width="4" height="4" fill="#F4C542"/>

  <!-- back wave layer (darker, anchored to top, jagged bottom edge) -->
  <g class="wave-back">
<rect x="0" y="0" width="20" height="95" fill="#5C2C14"/>
<rect x="20" y="0" width="20" height="117" fill="#5C2C14"/>
<rect x="40" y="0" width="20" height="139" fill="#5C2C14"/>
<rect x="60" y="0" width="20" height="161" fill="#5C2C14"/>
<rect x="80" y="0" width="20" height="161" fill="#5C2C14"/>
<rect x="100" y="0" width="20" height="139" fill="#5C2C14"/>
<rect x="120" y="0" width="20" height="117" fill="#5C2C14"/>
<rect x="140" y="0" width="20" height="95" fill="#5C2C14"/>
<rect x="160" y="0" width="20" height="95" fill="#5C2C14"/>
<rect x="180" y="0" width="20" height="117" fill="#5C2C14"/>
<rect x="200" y="0" width="20" height="139" fill="#5C2C14"/>
<rect x="220" y="0" width="20" height="161" fill="#5C2C14"/>
<rect x="240" y="0" width="20" height="161" fill="#5C2C14"/>
<rect x="260" y="0" width="20" height="139" fill="#5C2C14"/>
<rect x="280" y="0" width="20" height="117" fill="#5C2C14"/>
<rect x="300" y="0" width="20" height="95" fill="#5C2C14"/>
<rect x="320" y="0" width="20" height="95" fill="#5C2C14"/>
<rect x="340" y="0" width="20" height="117" fill="#5C2C14"/>
<rect x="360" y="0" width="20" height="139" fill="#5C2C14"/>
<rect x="380" y="0" width="20" height="161" fill="#5C2C14"/>
<rect x="400" y="0" width="20" height="161" fill="#5C2C14"/>
<rect x="420" y="0" width="20" height="139" fill="#5C2C14"/>
<rect x="440" y="0" width="20" height="117" fill="#5C2C14"/>
<rect x="460" y="0" width="20" height="95" fill="#5C2C14"/>
<rect x="480" y="0" width="20" height="95" fill="#5C2C14"/>
<rect x="500" y="0" width="20" height="117" fill="#5C2C14"/>
<rect x="520" y="0" width="20" height="139" fill="#5C2C14"/>
<rect x="540" y="0" width="20" height="161" fill="#5C2C14"/>
<rect x="560" y="0" width="20" height="161" fill="#5C2C14"/>
<rect x="580" y="0" width="20" height="139" fill="#5C2C14"/>
<rect x="600" y="0" width="20" height="117" fill="#5C2C14"/>
<rect x="620" y="0" width="20" height="95" fill="#5C2C14"/>
<rect x="640" y="0" width="20" height="95" fill="#5C2C14"/>
<rect x="660" y="0" width="20" height="117" fill="#5C2C14"/>
<rect x="680" y="0" width="20" height="139" fill="#5C2C14"/>
<rect x="700" y="0" width="20" height="161" fill="#5C2C14"/>
<rect x="720" y="0" width="20" height="161" fill="#5C2C14"/>
<rect x="740" y="0" width="20" height="139" fill="#5C2C14"/>
<rect x="760" y="0" width="20" height="117" fill="#5C2C14"/>
<rect x="780" y="0" width="20" height="95" fill="#5C2C14"/>
<rect x="800" y="0" width="20" height="95" fill="#5C2C14"/>
<rect x="820" y="0" width="20" height="117" fill="#5C2C14"/>
<rect x="840" y="0" width="20" height="139" fill="#5C2C14"/>
<rect x="860" y="0" width="20" height="161" fill="#5C2C14"/>
<rect x="880" y="0" width="20" height="161" fill="#5C2C14"/>
<rect x="900" y="0" width="20" height="139" fill="#5C2C14"/>
<rect x="920" y="0" width="20" height="117" fill="#5C2C14"/>
<rect x="940" y="0" width="20" height="95" fill="#5C2C14"/>
<rect x="960" y="0" width="20" height="95" fill="#5C2C14"/>
<rect x="980" y="0" width="20" height="117" fill="#5C2C14"/>
<rect x="1000" y="0" width="20" height="139" fill="#5C2C14"/>
<rect x="1020" y="0" width="20" height="161" fill="#5C2C14"/>
<rect x="1040" y="0" width="20" height="161" fill="#5C2C14"/>
<rect x="1060" y="0" width="20" height="139" fill="#5C2C14"/>
<rect x="1080" y="0" width="20" height="117" fill="#5C2C14"/>
<rect x="1100" y="0" width="20" height="95" fill="#5C2C14"/>
<rect x="1120" y="0" width="20" height="95" fill="#5C2C14"/>
<rect x="1140" y="0" width="20" height="117" fill="#5C2C14"/>
<rect x="1160" y="0" width="20" height="139" fill="#5C2C14"/>
<rect x="1180" y="0" width="20" height="161" fill="#5C2C14"/>
<rect x="1200" y="0" width="20" height="161" fill="#5C2C14"/>
<rect x="1220" y="0" width="20" height="139" fill="#5C2C14"/>
<rect x="1240" y="0" width="20" height="117" fill="#5C2C14"/>
<rect x="1260" y="0" width="20" height="95" fill="#5C2C14"/>
<rect x="1280" y="0" width="20" height="95" fill="#5C2C14"/>
<rect x="1300" y="0" width="20" height="117" fill="#5C2C14"/>
<rect x="1320" y="0" width="20" height="139" fill="#5C2C14"/>
<rect x="1340" y="0" width="20" height="161" fill="#5C2C14"/>
<rect x="1360" y="0" width="20" height="161" fill="#5C2C14"/>
<rect x="1380" y="0" width="20" height="139" fill="#5C2C14"/>
<rect x="1400" y="0" width="20" height="117" fill="#5C2C14"/>
<rect x="1420" y="0" width="20" height="95" fill="#5C2C14"/>
<rect x="1440" y="0" width="20" height="95" fill="#5C2C14"/>
<rect x="1460" y="0" width="20" height="117" fill="#5C2C14"/>
<rect x="1480" y="0" width="20" height="139" fill="#5C2C14"/>
<rect x="1500" y="0" width="20" height="161" fill="#5C2C14"/>
<rect x="1520" y="0" width="20" height="161" fill="#5C2C14"/>
<rect x="1540" y="0" width="20" height="139" fill="#5C2C14"/>
<rect x="1560" y="0" width="20" height="117" fill="#5C2C14"/>
<rect x="1580" y="0" width="20" height="95" fill="#5C2C14"/>
<rect x="1600" y="0" width="20" height="95" fill="#5C2C14"/>
<rect x="1620" y="0" width="20" height="117" fill="#5C2C14"/>
<rect x="1640" y="0" width="20" height="139" fill="#5C2C14"/>
<rect x="1660" y="0" width="20" height="161" fill="#5C2C14"/>
<rect x="1680" y="0" width="20" height="161" fill="#5C2C14"/>
<rect x="1700" y="0" width="20" height="139" fill="#5C2C14"/>
<rect x="1720" y="0" width="20" height="117" fill="#5C2C14"/>
<rect x="1740" y="0" width="20" height="95" fill="#5C2C14"/>
<rect x="1760" y="0" width="20" height="95" fill="#5C2C14"/>
<rect x="1780" y="0" width="20" height="117" fill="#5C2C14"/>
<rect x="1800" y="0" width="20" height="139" fill="#5C2C14"/>
<rect x="1820" y="0" width="20" height="161" fill="#5C2C14"/>
<rect x="1840" y="0" width="20" height="161" fill="#5C2C14"/>
<rect x="1860" y="0" width="20" height="139" fill="#5C2C14"/>
<rect x="1880" y="0" width="20" height="117" fill="#5C2C14"/>
<rect x="1900" y="0" width="20" height="95" fill="#5C2C14"/>
<rect x="1920" y="0" width="20" height="95" fill="#5C2C14"/>
<rect x="1940" y="0" width="20" height="117" fill="#5C2C14"/>
<rect x="1960" y="0" width="20" height="139" fill="#5C2C14"/>
<rect x="1980" y="0" width="20" height="161" fill="#5C2C14"/>
<rect x="2000" y="0" width="20" height="161" fill="#5C2C14"/>
<rect x="2020" y="0" width="20" height="139" fill="#5C2C14"/>
<rect x="2040" y="0" width="20" height="117" fill="#5C2C14"/>
<rect x="2060" y="0" width="20" height="95" fill="#5C2C14"/>
<rect x="2080" y="0" width="20" height="95" fill="#5C2C14"/>
<rect x="2100" y="0" width="20" height="117" fill="#5C2C14"/>
<rect x="2120" y="0" width="20" height="139" fill="#5C2C14"/>
<rect x="2140" y="0" width="20" height="161" fill="#5C2C14"/>
<rect x="2160" y="0" width="20" height="161" fill="#5C2C14"/>
<rect x="2180" y="0" width="20" height="139" fill="#5C2C14"/>
<rect x="2200" y="0" width="20" height="117" fill="#5C2C14"/>
<rect x="2220" y="0" width="20" height="95" fill="#5C2C14"/>
<rect x="2240" y="0" width="20" height="95" fill="#5C2C14"/>
<rect x="2260" y="0" width="20" height="117" fill="#5C2C14"/>
<rect x="2280" y="0" width="20" height="139" fill="#5C2C14"/>
<rect x="2300" y="0" width="20" height="161" fill="#5C2C14"/>
<rect x="2320" y="0" width="20" height="161" fill="#5C2C14"/>
<rect x="2340" y="0" width="20" height="139" fill="#5C2C14"/>
<rect x="2360" y="0" width="20" height="117" fill="#5C2C14"/>
<rect x="2380" y="0" width="20" height="95" fill="#5C2C14"/>
<rect x="2400" y="0" width="20" height="95" fill="#5C2C14"/>
<rect x="2420" y="0" width="20" height="117" fill="#5C2C14"/>
<rect x="2440" y="0" width="20" height="139" fill="#5C2C14"/>
<rect x="2460" y="0" width="20" height="161" fill="#5C2C14"/>
<rect x="2480" y="0" width="20" height="161" fill="#5C2C14"/>
<rect x="2500" y="0" width="20" height="139" fill="#5C2C14"/>
<rect x="2520" y="0" width="20" height="117" fill="#5C2C14"/>
<rect x="2540" y="0" width="20" height="95" fill="#5C2C14"/>
<rect x="2560" y="0" width="20" height="95" fill="#5C2C14"/>
<rect x="2580" y="0" width="20" height="117" fill="#5C2C14"/>
<rect x="2600" y="0" width="20" height="139" fill="#5C2C14"/>
<rect x="2620" y="0" width="20" height="161" fill="#5C2C14"/>
<rect x="2640" y="0" width="20" height="161" fill="#5C2C14"/>
<rect x="2660" y="0" width="20" height="139" fill="#5C2C14"/>
<rect x="2680" y="0" width="20" height="117" fill="#5C2C14"/>
<rect x="2700" y="0" width="20" height="95" fill="#5C2C14"/>
<rect x="2720" y="0" width="20" height="95" fill="#5C2C14"/>
<rect x="2740" y="0" width="20" height="117" fill="#5C2C14"/>
<rect x="2760" y="0" width="20" height="139" fill="#5C2C14"/>
<rect x="2780" y="0" width="20" height="161" fill="#5C2C14"/>
<rect x="2800" y="0" width="20" height="161" fill="#5C2C14"/>
<rect x="2820" y="0" width="20" height="139" fill="#5C2C14"/>
<rect x="2840" y="0" width="20" height="117" fill="#5C2C14"/>
<rect x="2860" y="0" width="20" height="95" fill="#5C2C14"/>
<rect x="2880" y="0" width="20" height="95" fill="#5C2C14"/>
<rect x="2900" y="0" width="20" height="117" fill="#5C2C14"/>
<rect x="2920" y="0" width="20" height="139" fill="#5C2C14"/>
<rect x="2940" y="0" width="20" height="161" fill="#5C2C14"/>
<rect x="2960" y="0" width="20" height="161" fill="#5C2C14"/>
<rect x="2980" y="0" width="20" height="139" fill="#5C2C14"/>
<rect x="3000" y="0" width="20" height="117" fill="#5C2C14"/>
<rect x="3020" y="0" width="20" height="95" fill="#5C2C14"/>
<rect x="3040" y="0" width="20" height="95" fill="#5C2C14"/>
<rect x="3060" y="0" width="20" height="117" fill="#5C2C14"/>
<rect x="3080" y="0" width="20" height="139" fill="#5C2C14"/>
<rect x="3100" y="0" width="20" height="161" fill="#5C2C14"/>
<rect x="3120" y="0" width="20" height="161" fill="#5C2C14"/>
<rect x="3140" y="0" width="20" height="139" fill="#5C2C14"/>
<rect x="3160" y="0" width="20" height="117" fill="#5C2C14"/>
<rect x="3180" y="0" width="20" height="95" fill="#5C2C14"/>
  </g>

  <!-- front wave layer (primary color, anchored to top, jagged bottom edge) -->
  <g class="wave-front">
<rect x="0" y="0" width="20" height="165" fill="#7E3D1F"/>
<rect x="20" y="0" width="20" height="141" fill="#7E3D1F"/>
<rect x="40" y="0" width="20" height="119" fill="#7E3D1F"/>
<rect x="60" y="0" width="20" height="115" fill="#7E3D1F"/>
<rect x="80" y="0" width="20" height="119" fill="#7E3D1F"/>
<rect x="100" y="0" width="20" height="141" fill="#7E3D1F"/>
<rect x="120" y="0" width="20" height="165" fill="#7E3D1F"/>
<rect x="140" y="0" width="20" height="181" fill="#7E3D1F"/>
<rect x="160" y="0" width="20" height="165" fill="#7E3D1F"/>
<rect x="180" y="0" width="20" height="141" fill="#7E3D1F"/>
<rect x="200" y="0" width="20" height="119" fill="#7E3D1F"/>
<rect x="220" y="0" width="20" height="115" fill="#7E3D1F"/>
<rect x="240" y="0" width="20" height="119" fill="#7E3D1F"/>
<rect x="260" y="0" width="20" height="141" fill="#7E3D1F"/>
<rect x="280" y="0" width="20" height="165" fill="#7E3D1F"/>
<rect x="300" y="0" width="20" height="181" fill="#7E3D1F"/>
<rect x="320" y="0" width="20" height="165" fill="#7E3D1F"/>
<rect x="340" y="0" width="20" height="141" fill="#7E3D1F"/>
<rect x="360" y="0" width="20" height="119" fill="#7E3D1F"/>
<rect x="380" y="0" width="20" height="115" fill="#7E3D1F"/>
<rect x="400" y="0" width="20" height="119" fill="#7E3D1F"/>
<rect x="420" y="0" width="20" height="141" fill="#7E3D1F"/>
<rect x="440" y="0" width="20" height="165" fill="#7E3D1F"/>
<rect x="460" y="0" width="20" height="181" fill="#7E3D1F"/>
<rect x="480" y="0" width="20" height="165" fill="#7E3D1F"/>
<rect x="500" y="0" width="20" height="141" fill="#7E3D1F"/>
<rect x="520" y="0" width="20" height="119" fill="#7E3D1F"/>
<rect x="540" y="0" width="20" height="115" fill="#7E3D1F"/>
<rect x="560" y="0" width="20" height="119" fill="#7E3D1F"/>
<rect x="580" y="0" width="20" height="141" fill="#7E3D1F"/>
<rect x="600" y="0" width="20" height="165" fill="#7E3D1F"/>
<rect x="620" y="0" width="20" height="181" fill="#7E3D1F"/>
<rect x="640" y="0" width="20" height="165" fill="#7E3D1F"/>
<rect x="660" y="0" width="20" height="141" fill="#7E3D1F"/>
<rect x="680" y="0" width="20" height="119" fill="#7E3D1F"/>
<rect x="700" y="0" width="20" height="115" fill="#7E3D1F"/>
<rect x="720" y="0" width="20" height="119" fill="#7E3D1F"/>
<rect x="740" y="0" width="20" height="141" fill="#7E3D1F"/>
<rect x="760" y="0" width="20" height="165" fill="#7E3D1F"/>
<rect x="780" y="0" width="20" height="181" fill="#7E3D1F"/>
<rect x="800" y="0" width="20" height="165" fill="#7E3D1F"/>
<rect x="820" y="0" width="20" height="141" fill="#7E3D1F"/>
<rect x="840" y="0" width="20" height="119" fill="#7E3D1F"/>
<rect x="860" y="0" width="20" height="115" fill="#7E3D1F"/>
<rect x="880" y="0" width="20" height="119" fill="#7E3D1F"/>
<rect x="900" y="0" width="20" height="141" fill="#7E3D1F"/>
<rect x="920" y="0" width="20" height="165" fill="#7E3D1F"/>
<rect x="940" y="0" width="20" height="181" fill="#7E3D1F"/>
<rect x="960" y="0" width="20" height="165" fill="#7E3D1F"/>
<rect x="980" y="0" width="20" height="141" fill="#7E3D1F"/>
<rect x="1000" y="0" width="20" height="119" fill="#7E3D1F"/>
<rect x="1020" y="0" width="20" height="115" fill="#7E3D1F"/>
<rect x="1040" y="0" width="20" height="119" fill="#7E3D1F"/>
<rect x="1060" y="0" width="20" height="141" fill="#7E3D1F"/>
<rect x="1080" y="0" width="20" height="165" fill="#7E3D1F"/>
<rect x="1100" y="0" width="20" height="181" fill="#7E3D1F"/>
<rect x="1120" y="0" width="20" height="165" fill="#7E3D1F"/>
<rect x="1140" y="0" width="20" height="141" fill="#7E3D1F"/>
<rect x="1160" y="0" width="20" height="119" fill="#7E3D1F"/>
<rect x="1180" y="0" width="20" height="115" fill="#7E3D1F"/>
<rect x="1200" y="0" width="20" height="119" fill="#7E3D1F"/>
<rect x="1220" y="0" width="20" height="141" fill="#7E3D1F"/>
<rect x="1240" y="0" width="20" height="165" fill="#7E3D1F"/>
<rect x="1260" y="0" width="20" height="181" fill="#7E3D1F"/>
<rect x="1280" y="0" width="20" height="165" fill="#7E3D1F"/>
<rect x="1300" y="0" width="20" height="141" fill="#7E3D1F"/>
<rect x="1320" y="0" width="20" height="119" fill="#7E3D1F"/>
<rect x="1340" y="0" width="20" height="115" fill="#7E3D1F"/>
<rect x="1360" y="0" width="20" height="119" fill="#7E3D1F"/>
<rect x="1380" y="0" width="20" height="141" fill="#7E3D1F"/>
<rect x="1400" y="0" width="20" height="165" fill="#7E3D1F"/>
<rect x="1420" y="0" width="20" height="181" fill="#7E3D1F"/>
<rect x="1440" y="0" width="20" height="165" fill="#7E3D1F"/>
<rect x="1460" y="0" width="20" height="141" fill="#7E3D1F"/>
<rect x="1480" y="0" width="20" height="119" fill="#7E3D1F"/>
<rect x="1500" y="0" width="20" height="115" fill="#7E3D1F"/>
<rect x="1520" y="0" width="20" height="119" fill="#7E3D1F"/>
<rect x="1540" y="0" width="20" height="141" fill="#7E3D1F"/>
<rect x="1560" y="0" width="20" height="165" fill="#7E3D1F"/>
<rect x="1580" y="0" width="20" height="181" fill="#7E3D1F"/>
<rect x="1600" y="0" width="20" height="165" fill="#7E3D1F"/>
<rect x="1620" y="0" width="20" height="141" fill="#7E3D1F"/>
<rect x="1640" y="0" width="20" height="119" fill="#7E3D1F"/>
<rect x="1660" y="0" width="20" height="115" fill="#7E3D1F"/>
<rect x="1680" y="0" width="20" height="119" fill="#7E3D1F"/>
<rect x="1700" y="0" width="20" height="141" fill="#7E3D1F"/>
<rect x="1720" y="0" width="20" height="165" fill="#7E3D1F"/>
<rect x="1740" y="0" width="20" height="181" fill="#7E3D1F"/>
<rect x="1760" y="0" width="20" height="165" fill="#7E3D1F"/>
<rect x="1780" y="0" width="20" height="141" fill="#7E3D1F"/>
<rect x="1800" y="0" width="20" height="119" fill="#7E3D1F"/>
<rect x="1820" y="0" width="20" height="115" fill="#7E3D1F"/>
<rect x="1840" y="0" width="20" height="119" fill="#7E3D1F"/>
<rect x="1860" y="0" width="20" height="141" fill="#7E3D1F"/>
<rect x="1880" y="0" width="20" height="165" fill="#7E3D1F"/>
<rect x="1900" y="0" width="20" height="181" fill="#7E3D1F"/>
<rect x="1920" y="0" width="20" height="165" fill="#7E3D1F"/>
<rect x="1940" y="0" width="20" height="141" fill="#7E3D1F"/>
<rect x="1960" y="0" width="20" height="119" fill="#7E3D1F"/>
<rect x="1980" y="0" width="20" height="115" fill="#7E3D1F"/>
<rect x="2000" y="0" width="20" height="119" fill="#7E3D1F"/>
<rect x="2020" y="0" width="20" height="141" fill="#7E3D1F"/>
<rect x="2040" y="0" width="20" height="165" fill="#7E3D1F"/>
<rect x="2060" y="0" width="20" height="181" fill="#7E3D1F"/>
<rect x="2080" y="0" width="20" height="165" fill="#7E3D1F"/>
<rect x="2100" y="0" width="20" height="141" fill="#7E3D1F"/>
<rect x="2120" y="0" width="20" height="119" fill="#7E3D1F"/>
<rect x="2140" y="0" width="20" height="115" fill="#7E3D1F"/>
<rect x="2160" y="0" width="20" height="119" fill="#7E3D1F"/>
<rect x="2180" y="0" width="20" height="141" fill="#7E3D1F"/>
<rect x="2200" y="0" width="20" height="165" fill="#7E3D1F"/>
<rect x="2220" y="0" width="20" height="181" fill="#7E3D1F"/>
<rect x="2240" y="0" width="20" height="165" fill="#7E3D1F"/>
<rect x="2260" y="0" width="20" height="141" fill="#7E3D1F"/>
<rect x="2280" y="0" width="20" height="119" fill="#7E3D1F"/>
<rect x="2300" y="0" width="20" height="115" fill="#7E3D1F"/>
<rect x="2320" y="0" width="20" height="119" fill="#7E3D1F"/>
<rect x="2340" y="0" width="20" height="141" fill="#7E3D1F"/>
<rect x="2360" y="0" width="20" height="165" fill="#7E3D1F"/>
<rect x="2380" y="0" width="20" height="181" fill="#7E3D1F"/>
<rect x="2400" y="0" width="20" height="165" fill="#7E3D1F"/>
<rect x="2420" y="0" width="20" height="141" fill="#7E3D1F"/>
<rect x="2440" y="0" width="20" height="119" fill="#7E3D1F"/>
<rect x="2460" y="0" width="20" height="115" fill="#7E3D1F"/>
<rect x="2480" y="0" width="20" height="119" fill="#7E3D1F"/>
<rect x="2500" y="0" width="20" height="141" fill="#7E3D1F"/>
<rect x="2520" y="0" width="20" height="165" fill="#7E3D1F"/>
<rect x="2540" y="0" width="20" height="181" fill="#7E3D1F"/>
<rect x="2560" y="0" width="20" height="165" fill="#7E3D1F"/>
<rect x="2580" y="0" width="20" height="141" fill="#7E3D1F"/>
<rect x="2600" y="0" width="20" height="119" fill="#7E3D1F"/>
<rect x="2620" y="0" width="20" height="115" fill="#7E3D1F"/>
<rect x="2640" y="0" width="20" height="119" fill="#7E3D1F"/>
<rect x="2660" y="0" width="20" height="141" fill="#7E3D1F"/>
<rect x="2680" y="0" width="20" height="165" fill="#7E3D1F"/>
<rect x="2700" y="0" width="20" height="181" fill="#7E3D1F"/>
<rect x="2720" y="0" width="20" height="165" fill="#7E3D1F"/>
<rect x="2740" y="0" width="20" height="141" fill="#7E3D1F"/>
<rect x="2760" y="0" width="20" height="119" fill="#7E3D1F"/>
<rect x="2780" y="0" width="20" height="115" fill="#7E3D1F"/>
<rect x="2800" y="0" width="20" height="119" fill="#7E3D1F"/>
<rect x="2820" y="0" width="20" height="141" fill="#7E3D1F"/>
<rect x="2840" y="0" width="20" height="165" fill="#7E3D1F"/>
<rect x="2860" y="0" width="20" height="181" fill="#7E3D1F"/>
<rect x="2880" y="0" width="20" height="165" fill="#7E3D1F"/>
<rect x="2900" y="0" width="20" height="141" fill="#7E3D1F"/>
<rect x="2920" y="0" width="20" height="119" fill="#7E3D1F"/>
<rect x="2940" y="0" width="20" height="115" fill="#7E3D1F"/>
<rect x="2960" y="0" width="20" height="119" fill="#7E3D1F"/>
<rect x="2980" y="0" width="20" height="141" fill="#7E3D1F"/>
<rect x="3000" y="0" width="20" height="165" fill="#7E3D1F"/>
<rect x="3020" y="0" width="20" height="181" fill="#7E3D1F"/>
<rect x="3040" y="0" width="20" height="165" fill="#7E3D1F"/>
<rect x="3060" y="0" width="20" height="141" fill="#7E3D1F"/>
<rect x="3080" y="0" width="20" height="119" fill="#7E3D1F"/>
<rect x="3100" y="0" width="20" height="115" fill="#7E3D1F"/>
<rect x="3120" y="0" width="20" height="119" fill="#7E3D1F"/>
<rect x="3140" y="0" width="20" height="141" fill="#7E3D1F"/>
<rect x="3160" y="0" width="20" height="165" fill="#7E3D1F"/>
<rect x="3180" y="0" width="20" height="181" fill="#7E3D1F"/>
  </g>

  <!-- title text with retro drop shadow -->
  <text class="pixel-font fade-title" x="368" y="66" font-size="42" fill="#3A1A0B">ROSS DREW</text>
  <text class="pixel-font fade-title" x="365" y="63" font-size="42" fill="#000000">ROSS DREW</text>

  <!-- subtitle -->
  <text class="pixel-font fade-sub" x="393" y="98" font-size="14" fill="#3A1A0B">AI ENGINEER | CODER | TINKERER<tspan class="cursor">_</tspan></text>
  <text class="pixel-font fade-sub" x="390" y="95" font-size="14" fill="#000000">AI ENGINEER | CODER | TINKERER<tspan class="cursor">_</tspan></text>
</svg>
